<svg id="eAj3GdyQJi41" xmlns="http://www.w3.org/2000/svg" xmlns:xlink="http://www.w3.org/1999/xlink" viewBox="0 0 600 300" shape-rendering="geometricPrecision" text-rendering="geometricPrecision"><defs><filter id="eAj3GdyQJi43-filter" x="-150%" width="400%" y="-150%" height="400%"><feColorMatrix id="eAj3GdyQJi43-filter-grayscale-0" type="matrix" values="0.2126 0.7152 0.0722 0 0 0.2126 0.7152 0.0722 0 0 0.2126 0.7152 0.0722 0 0 0 0 0 1 0" result="result"/></filter></defs><g><g filter="url(#eAj3GdyQJi43-filter)"><g transform="translate(-1.698519 33.310895)"><rect width="547.764706" height="160.941176" rx="0" ry="0" transform="matrix(.069591 0 0 1 57.635249 69.529412)" fill="#9aa0a6" stroke-width="0"/><rect width="38.119494" height="18.875456" rx="0" ry="0" transform="matrix(.751142 0 0 1.24 62.37842 202.471143)" fill="#f1f3f4" stroke-width="0"/><rect width="38.119494" height="18.875456" rx="0" ry="0" transform="matrix(.751142 0 0 2.895089 62.37842 76.502826)" fill="#f1f3f4" stroke-width="0"/><rect width="38.119494" height="18.875456" rx="0" ry="0" transform="matrix(.751142 0 0 0.377598 62.37842 134.848197)" fill="#f1f3f4" stroke-width="0"/><rect width="38.119494" height="18.875456" rx="0" ry="0" transform="matrix(.751142 0 0 0.377598 62.37842 145.848197)" fill="#f1f3f4" stroke-width="0"/><rect width="38.119494" height="18.875456" rx="0" ry="0" transform="matrix(.751142 0 0 0.377598 62.37842 156.848197)" fill="#f1f3f4" stroke-width="0"/><rect width="38.119494" height="18.875456" rx="0" ry="0" transform="matrix(.751142 0 0 0.377598 62.37842 167.848197)" fill="#f1f3f4" stroke-width="0"/><path d="M79.835942,75.294399c0,0,.386196,105.493394.386196,152.046251" transform="matrix(-1 0 0 0.940791 175.590685 16.017724)" fill="none" stroke="#202124" stroke-width="3"/></g><g transform="matrix(1 0 0 1.155295 36.420974-2.480053)"><rect width="547.764706" height="160.941176" rx="0" ry="0" transform="matrix(.069591 0 0 1 57.635249 69.529412)" fill="#9f9f9f" stroke-width="0"/><rect width="38.119494" height="18.875456" rx="0" ry="0" transform="matrix(.751142 0 0 1.24 62.37842 202.471143)" fill="#f3f3f3" stroke-width="0"/><rect width="38.119494" height="18.875456" rx="0" ry="0" transform="matrix(.751142 0 0 0.377598 62.37842 169.471397)" fill="#f3f3f3" stroke-width="0"/><rect width="38.119494" height="18.875456" rx="0" ry="0" transform="matrix(.751142 0 0 0.377598 62.37842 180.471397)" fill="#f3f3f3" stroke-width="0"/><rect width="38.119494" height="18.875456" rx="0" ry="0" transform="matrix(.751142 0 0 0.377598 62.37842 191.471397)" fill="#f3f3f3" stroke-width="0"/><path d="M79.835942,75.294399c0,0,0,108.623332,0,155.176189" transform="matrix(-1 0 0 0.940791 175.590685 13.017724)" fill="none" stroke="#212121" stroke-width="3"/></g><g transform="matrix(1.958931 0 0 1.105237 57.579881 10.283049)"><rect width="547.764706" height="160.941176" rx="0" ry="0" transform="matrix(.069591 0 0 1 57.635249 69.529412)" fill="#9f9f9f" stroke-width="0"/><rect width="38.119494" height="18.875456" rx="0" ry="0" transform="matrix(.751142 0 0 2.895089 62.37842 171.505041)" fill="#f3f3f3" stroke-width="0"/><rect width="38.119494" height="18.875456" rx="0" ry="0" transform="matrix(.751142 0 0 0.377598 62.37842 134.848197)" fill="#f3f3f3" stroke-width="0"/><rect width="38.119494" height="18.875456" rx="0" ry="0" transform="matrix(.751142 0 0 0.377598 62.37842 145.848197)" fill="#f3f3f3" stroke-width="0"/><rect width="38.119494" height="18.875456" rx="0" ry="0" transform="matrix(.751142 0 0 0.377598 62.37842 156.848197)" fill="#f3f3f3" stroke-width="0"/></g><g transform="matrix(1 0 0 1.155295 403.455698-2.027602)"><rect width="547.764706" height="160.941176" rx="0" ry="0" transform="matrix(.069591 0 0 1 57.635249 69.529412)" fill="#9f9f9f" stroke-width="0"/><rect width="38.119494" height="18.875456" rx="0" ry="0" transform="matrix(.751142 0 0 1.24 62.37842 202.471143)" fill="#f3f3f3" stroke-width="0"/><rect width="38.119494" height="18.875456" rx="0" ry="0" transform="matrix(.751142 0 0 2.895089 62.37842 76.502826)" fill="#f3f3f3" stroke-width="0"/><rect width="38.119494" height="18.875456" rx="0" ry="0" transform="matrix(.751142 0 0 2.600543 62.37842 134.408065)" fill="#f3f3f3" stroke-width="0"/></g><g transform="matrix(1 0 0 1.103604 74.540464 9.745817)"><rect width="547.764706" height="160.941176" rx="0" ry="0" transform="matrix(.069591 0 0 1 57.635249 69.529412)" fill="#9f9f9f" stroke-width="0"/><rect width="547.764706" height="160.941176" rx="0" ry="0" transform="matrix(.069591 0 0 1 57.635249 69.529412)" fill="#9f9f9f" stroke-width="0"/><rect width="38.119494" height="18.875456" rx="0" ry="0" transform="matrix(.751142 0 0 1.24 62.37842 202.471143)" fill="#f3f3f3" stroke-width="0"/><rect width="38.119494" height="18.875456" rx="0" ry="0" transform="matrix(.751142 0 0 1.396854 62.37842 78.863175)" fill="#f3f3f3" stroke-width="0"/><rect width="38.119494" height="18.875456" rx="0" ry="0" transform="matrix(.751142 0 0 0.377598 62.37842 134.848197)" fill="#f3f3f3" stroke-width="0"/><rect width="38.119494" height="18.875456" rx="0" ry="0" transform="matrix(.751142 0 0 0.377598 62.37842 145.848197)" fill="#f3f3f3" stroke-width="0"/><rect width="38.119494" height="18.875456" rx="0" ry="0" transform="matrix(.751142 0 0 0.377598 62.37842 156.848197)" fill="#f3f3f3" stroke-width="0"/><path d="M79.835942,75.294399c0,0,0,108.623332,0,155.176189" transform="matrix(-1 0 0 0.940791 175.590685 13.017724)" fill="none" stroke="#202124" stroke-width="3"/></g><g transform="matrix(.997078 0.076386-.088249 1.15192 210.963461-8.016492)"><rect width="547.764706" height="160.941176" rx="0" ry="0" transform="matrix(.069591 0 0 1 57.635249 69.529412)" fill="#9f9f9f" stroke-width="0"/><rect width="38.119494" height="18.875456" rx="0" ry="0" transform="matrix(.751142 0 0 2.895089 62.37842 76.502826)" fill="#f3f3f3" stroke-width="0"/><rect width="38.119494" height="18.875456" rx="0" ry="0" transform="matrix(.751142 0 0 0.377598 62.37842 134.848197)" fill="#f3f3f3" stroke-width="0"/><rect width="38.119494" height="18.875456" rx="0" ry="0" transform="matrix(.751142 0 0 0.377598 62.37842 145.848197)" fill="#f3f3f3" stroke-width="0"/><rect width="38.119494" height="18.875456" rx="0" ry="0" transform="matrix(.751142 0 0 0.377598 62.37842 156.848197)" fill="#f3f3f3" stroke-width="0"/></g><g transform="matrix(1 0 0 1.155295 242.667318-2.480045)"><rect width="547.764706" height="160.941176" rx="0" ry="0" transform="matrix(.069591 0 0 1 57.635249 69.529412)" fill="#9f9f9f" stroke-width="0"/><rect width="38.119494" height="18.875456" rx="0" ry="0" transform="matrix(.751142 0 0 0.377598 62.37842 183.320677)" fill="#f3f3f3" stroke-width="0"/><path d="M79.835942,75.294399c0,0,0,108.623332,0,155.176189" transform="matrix(-1 0 0 0.940791 175.590685 13.017724)" fill="none" stroke="#0c1420" stroke-width="3"/><ellipse rx="14.731697" ry="14.731697" transform="translate(75.899785 209.517339)" fill="#f3f3f3" stroke-width="0"/><ellipse rx="14.731697" ry="14.731697" transform="matrix(1.611277 0 0 1-34.315203 103.093486)" fill="#f3f3f3" stroke-width="0"/></g><g transform="matrix(1 0 0 1.065193 280.786811 18.207109)"><rect width="547.764706" height="160.941176" rx="0" ry="0" transform="matrix(.069591 0 0 1 57.635249 69.529412)" fill="#9f9f9f" stroke-width="0"/><rect width="38.119494" height="18.875456" rx="0" ry="0" transform="matrix(.751142 0 0 1.24 62.37842 202.471143)" fill="#f3f3f3" stroke-width="0"/><rect width="38.119494" height="18.875456" rx="0" ry="0" transform="matrix(.751142 0 0 2.895089 62.37842 76.502826)" fill="#f3f3f3" stroke-width="0"/><rect width="38.119494" height="18.875456" rx="0" ry="0" transform="matrix(.751142 0 0 0.377598 62.37842 134.848197)" fill="#f3f3f3" stroke-width="0"/><rect width="38.119494" height="18.875456" rx="0" ry="0" transform="matrix(.751142 0 0 0.377598 62.37842 145.848197)" fill="#f3f3f3" stroke-width="0"/><rect width="38.119494" height="18.875456" rx="0" ry="0" transform="matrix(.751142 0 0 0.377598 62.37842 156.848197)" fill="#f3f3f3" stroke-width="0"/><path d="M79.835942,75.294399c0,0,0,108.623332,0,155.176189" transform="matrix(-1 0 0 0.940791 175.590685 13.017724)" fill="none" stroke="#0c1420" stroke-width="3"/></g><g transform="matrix(1 0 0 1.065682 318.906304 18.173103)"><rect width="547.764706" height="160.941176" rx="0" ry="0" transform="matrix(.069591 0 0 1 57.635249 69.529412)" fill="#9f9f9f" stroke-width="0"/><rect width="38.119494" height="18.875456" rx="0" ry="0" transform="matrix(.751142 0 0 1.24 62.37842 202.471143)" fill="#f3f3f3" stroke-width="0"/><rect width="38.119494" height="18.875456" rx="0" ry="0" transform="matrix(.751142 0 0 2.895089 62.37842 76.502826)" fill="#f3f3f3" stroke-width="0"/><rect width="38.119494" height="18.875456" rx="0" ry="0" transform="matrix(.751142 0 0 0.377598 62.37842 134.848197)" fill="#f3f3f3" stroke-width="0"/><rect width="38.119494" height="18.875456" rx="0" ry="0" transform="matrix(.751142 0 0 0.377598 62.37842 145.848197)" fill="#f3f3f3" stroke-width="0"/><rect width="38.119494" height="18.875456" rx="0" ry="0" transform="matrix(.751142 0 0 0.377598 62.37842 156.848197)" fill="#f3f3f3" stroke-width="0"/></g><g transform="matrix(.999206-.039848 0.042465 1.064836 354.119007 20.586095)"><rect width="547.764706" height="160.941176" rx="0" ry="0" transform="matrix(.069591 0 0 1 57.635249 69.529412)" fill="#9f9f9f" stroke-width="0"/><rect width="38.119494" height="18.875456" rx="0" ry="0" transform="matrix(.751142 0 0 1.24 62.37842 202.471143)" fill="#f3f3f3" stroke-width="0"/><rect width="38.119494" height="18.875456" rx="0" ry="0" transform="matrix(.751142 0 0 2.895089 62.37842 76.502826)" fill="#f3f3f3" stroke-width="0"/><rect width="38.119494" height="18.875456" rx="0" ry="0" transform="matrix(.751142 0 0 0.377598 62.37842 134.848197)" fill="#f3f3f3" stroke-width="0"/><rect width="38.119494" height="18.875456" rx="0" ry="0" transform="matrix(.751142 0 0 0.377598 62.37842 145.848197)" fill="#f3f3f3" stroke-width="0"/><rect width="38.119494" height="18.875456" rx="0" ry="0" transform="matrix(.751142 0 0 0.377598 62.37842 156.848197)" fill="#f3f3f3" stroke-width="0"/></g><g transform="translate(-39.818023 33.31088)"><rect width="547.764706" height="160.941176" rx="0" ry="0" transform="matrix(.069591 0 0 1 57.635249 69.529412)" fill="#9f9f9f" stroke-width="0"/><rect width="38.119494" height="18.875456" rx="0" ry="0" transform="matrix(.751142 0 0 1.24 62.37842 202.471143)" fill="#f3f3f3" stroke-width="0"/><rect width="38.119494" height="18.875456" rx="0" ry="0" transform="matrix(.751142 0 0 2.895089 62.37842 76.502826)" fill="#f3f3f3" stroke-width="0"/><rect width="38.119494" height="18.875456" rx="0" ry="0" transform="matrix(.751142 0 0 0.377598 62.37842 134.848197)" fill="#f3f3f3" stroke-width="0"/><rect width="38.119494" height="18.875456" rx="0" ry="0" transform="matrix(.751142 0 0 0.377598 62.37842 145.848197)" fill="#f3f3f3" stroke-width="0"/><rect width="38.119494" height="18.875456" rx="0" ry="0" transform="matrix(.751142 0 0 0.377598 62.37842 156.848197)" fill="#f3f3f3" stroke-width="0"/><path d="M79.835942,75.294399c0,0,0,108.623332,0,155.176189" transform="matrix(1 0 0 0.968413 15.918801 8.794803)" fill="none" stroke="#0c1420" stroke-width="3"/></g></g></g><ellipse style="mix-blend-mode:screen" rx="101.212502" ry="99.266107" transform="translate(108.583036 110.319796)" fill="#4285f4" stroke-width="0"/><ellipse style="mix-blend-mode:screen" rx="101.212502" ry="99.266107" transform="matrix(.304809 0 0 0.304809 44.975731 239.165363)" fill="#4285f4" stroke-width="0"/><ellipse style="mix-blend-mode:screen" rx="101.212502" ry="99.266107" transform="matrix(.105951 0 0 0.105951 215.682571 69.002739)" fill="#4285f4" stroke-width="0"/><ellipse style="mix-blend-mode:screen" rx="98.889358" ry="100.841122" transform="matrix(.681108 0 0 0.681108 237.437357 220.889752)" fill="#ea4335" stroke-width="0"/><ellipse style="mix-blend-mode:screen" rx="98.889358" ry="100.841122" transform="matrix(-.278355 0 0-.278354 167.144981 266.491066)" fill="#ea4335" stroke-width="0"/><ellipse style="mix-blend-mode:screen" rx="98.889358" ry="100.841122" transform="matrix(.644279 0 0 0.644279 318.893069 98.176059)" fill="#fbbc04" stroke-width="0"/><ellipse style="mix-blend-mode:screen" rx="98.889358" ry="100.841122" transform="matrix(.115967 0 0 0.115967 271.371997 35.625739)" fill="#fbbc04" stroke-width="0"/><ellipse style="mix-blend-mode:screen" rx="98.889358" ry="100.841122" transform="matrix(.29376 0 0 0.29376 408.35696 40.45742)" fill="#fbbc04" stroke-width="0"/><ellipse style="mix-blend-mode:screen" rx="98.889358" ry="100.841122" transform="translate(445.107117 187.957186)" fill="#34a853" stroke-width="0"/><ellipse style="mix-blend-mode:screen" rx="98.889358" ry="100.841122" transform="matrix(.535308 0 0 0.535308 541.333553 227.100143)" fill="#34a853" stroke-width="0"/><ellipse style="mix-blend-mode:screen" rx="98.889358" ry="100.841122" transform="matrix(.185662 0 0 0.185662 562.619047 141.580634)" fill="#34a853" stroke-width="0"/></svg>
