<svg id="ez3aVMYAZ9t1" xmlns="http://www.w3.org/2000/svg" xmlns:xlink="http://www.w3.org/1999/xlink" viewBox="0 0 300 300" shape-rendering="geometricPrecision" text-rendering="geometricPrecision"><defs><filter id="ez3aVMYAZ9t22-filter" x="-150%" width="400%" y="-150%" height="400%"><feColorMatrix id="ez3aVMYAZ9t22-filter-hue-rotate-0" type="hueRotate" values="-234" result="result"/></filter><filter id="ez3aVMYAZ9t23-filter" x="-150%" width="400%" y="-150%" height="400%"><feColorMatrix id="ez3aVMYAZ9t23-filter-hue-rotate-0" type="hueRotate" values="-137" result="result"/></filter></defs><g transform="translate(.000001 0.000001)"><rect width="139.764705" height="174.352941" rx="0" ry="0" transform="matrix(1.004424 0 0 0.901098 78.263762 63.629)" fill="#ea4335" stroke-width="0"/><g transform="matrix(1.418352 0 0.715108 0.600047-99.677993 25.939117)"><rect width="139.764705" height="174.352941" rx="0" ry="0" transform="matrix(.672383 0 0 0.083172 91.692615 69.203459)" fill="#fde9e8" stroke-width="0"/></g><line x1="-62.410338" y1="0" x2="62.410338" y2="0" transform="translate(151.114424 69.815435)" fill="none" stroke="#fff"/><line x1="-62.410338" y1="0" x2="62.410338" y2="0" transform="translate(153.114424 71.815435)" fill="none" stroke="#fff"/><line x1="-62.410338" y1="0" x2="62.410338" y2="0" transform="translate(155.114424 73.815435)" fill="none" stroke="#fff"/><path d="M122.682028,174.038143c-25.225314.064115-122.694179-.397201-122.694179-.397201L0,0h139.764705c0,0,.170601,157.08066.170601,157.08066q-.137684,16.839183-17.253278,16.957483Z" transform="matrix(1 0 0 0.919234 91.16505 76.156135)" fill="#fbb1ac" stroke="#fbb1ac" stroke-linecap="round" stroke-linejoin="round"/><path d="M0.0578,0.495028l139.929107-.884283-.222202,174.742196h-139.764705L0.0578,0.495028Z" transform="matrix(.098579 0.098579 0 0.913433 77.425909 62.7309)" fill="#ea4335" stroke="#ea4335" stroke-linecap="round" stroke-linejoin="round"/><g transform="matrix(1.428353 0 0.183227 0.218361-68.82045 49.190579)"><path d="M0,0L139.062504,30.486907l.702201,143.866034h-139.764705L0,0Z" transform="matrix(.703002 0 0 0.021516 94.529273 62.334426)" fill="#fad2cf" stroke-linecap="round" stroke-linejoin="round"/></g><g transform="matrix(1.420441 0 0.183227 0.218361-55.655324 57.898517)"><path d="M0,0h139.764705l.579891,91.153362L0,174.352941L0,0Z" transform="matrix(.703002 0 0 0.021516 92.721797 80.025714)" fill="#fad2cf" stroke-width="0"/></g><g transform="matrix(-.131542-.135536 0.226168 0.0232 128.193497 90.468664)"><path d="M0,0l131.846853-106.971135L140.12773,55.737763L0,174.352941L0,0Z" transform="matrix(-.702927 0.010283-.000315-.021514 184.649585-113.258732)" fill="#fad2cf" stroke-width="0"/></g><line x1="-53.873178" y1="0" x2="53.873179" y2="0" transform="translate(160.77651 98.267061)" fill="none" stroke="#ea4335" stroke-width="10"/><line x1="-53.873178" y1="0" x2="53.873179" y2="0" transform="translate(160.77651 123.267061)" fill="none" stroke="#ea4335" stroke-width="5"/><line x1="-53.873178" y1="0" x2="53.873179" y2="0" transform="translate(160.77651 112.267061)" fill="none" stroke="#ea4335" stroke-width="5"/><path d="M96.713041,81.543427L0,81.425344L0,0h107.158826l.176311,73.129885q0,8.308372-10.622096,8.413542Z" transform="translate(106.750314 136.538082)" fill="#fff" stroke-width="0"/></g></svg>
