<svg id="e3yQUkmwovT1" xmlns="http://www.w3.org/2000/svg" xmlns:xlink="http://www.w3.org/1999/xlink" viewBox="0 0 300 300" shape-rendering="geometricPrecision" text-rendering="geometricPrecision"><g transform="matrix(-1.131401 0.002052-.002052-1.131401 323.331721 309.482485)"><ellipse rx="68.888889" ry="68.888889" transform="matrix(1.341398 0 0 1.341398 181.689702 167.720594)" fill="#fbbc04" stroke-width="0"/><ellipse rx="68.888889" ry="68.888889" transform="matrix(1.341398 0 0 1.341398 189.685835 137.911677)" fill="#ea4335" stroke-width="0"/><ellipse rx="68.888889" ry="68.888889" transform="matrix(1.341398 0 0 1.341398 176.12249 113.143228)" fill="#34a853" stroke-width="0"/><ellipse rx="68.888889" ry="68.888889" transform="matrix(1.341398 0 0 1.341398 150 105.837234)" fill="#4285f4" stroke-width="0"/><ellipse rx="68.888889" ry="68.888889" transform="matrix(1.341398 0 0 1.341398 126.584769 118.736792)" fill="#fbbc04" stroke-width="0"/><ellipse rx="68.888889" ry="68.888889" transform="matrix(1.341398 0 0 1.341398 116.203719 142.874261)" fill="#ea4335" stroke-width="0"/><ellipse rx="68.888889" ry="68.888889" transform="matrix(1.341398 0 0 1.341398 124.271577 168.043843)" fill="#4285f4" stroke-width="0"/><ellipse rx="68.888889" ry="68.888889" transform="matrix(1.341398 0 0 1.341398 153.151183 176.637849)" fill="#34a853" stroke-width="0"/><ellipse rx="68.888889" ry="68.888889" transform="matrix(1.479529 0 0 1.479524 152.246876 140.631365)" fill="#fff" stroke-width="0"/></g></svg>
