<svg id="eZDIFO9MBl81" xmlns="http://www.w3.org/2000/svg" xmlns:xlink="http://www.w3.org/1999/xlink" viewBox="0 0 300 300" shape-rendering="geometricPrecision" text-rendering="geometricPrecision"><g transform="matrix(-.655755-.754974 0.754974-.655755 146.617675 350.601779)"><ellipse rx="68.888889" ry="68.888889" transform="matrix(1.341398 0 0 1.341398 184.415706 170.088346)" fill="#fbbc04" stroke-width="0"/><ellipse rx="68.888889" ry="68.888889" transform="matrix(1.341398 0 0 1.341398 190.277773 137.230176)" fill="#ea4335" stroke-width="0"/><ellipse rx="68.888889" ry="68.888889" transform="matrix(1.341398 0 0 1.341398 178.490242 110.417224)" fill="#34a853" stroke-width="0"/><ellipse rx="68.888889" ry="68.888889" transform="matrix(1.341398 0 0 1.341398 150 105.837234)" fill="#4285f4" stroke-width="0"/><ellipse rx="68.888889" ry="68.888889" transform="matrix(1.341398 0 0 1.341398 122.495763 115.185164)" fill="#fbbc04" stroke-width="0"/><ellipse rx="68.888889" ry="68.888889" transform="matrix(1.341398 0 0 1.341398 116.203719 142.874261)" fill="#ea4335" stroke-width="0"/><ellipse rx="68.888889" ry="68.888889" transform="matrix(1.341398 0 0 1.341398 122.495763 170.088346)" fill="#4285f4" stroke-width="0"/><ellipse rx="68.888889" ry="68.888889" transform="matrix(1.341398 0 0 1.341398 153.240746 177.911288)" fill="#34a853" stroke-width="0"/><ellipse rx="68.888889" ry="68.888889" transform="matrix(1.623821 0 0 1.62382 153.240746 142.874261)" fill="#fff" stroke-width="0"/></g></svg>
